<?xml version="1.0" standalone="no"?>
<!DOCTYPE svg PUBLIC "-//W3C//DTD SVG 20010904//EN"
 "http://www.w3.org/TR/2001/REC-SVG-20010904/DTD/svg10.dtd">
<svg version="1.0" xmlns="http://www.w3.org/2000/svg"
 width="225.000000pt" height="225.000000pt" viewBox="0 0 225.000000 225.000000"
 preserveAspectRatio="xMidYMid meet">

<g transform="translate(0.000000,225.000000) scale(0.100000,-0.100000)"
fill="#ffffff" stroke="none">
<path d="M995 2110 c-33 -5 -98 -21 -145 -36 -349 -107 -599 -379 -672 -732
-29 -139 -22 -339 16 -467 74 -247 216 -438 434 -582 158 -104 286 -148 461
-159 289 -19 571 92 774 306 115 119 171 233 182 367 l5 68 -35 -75 c-38 -81
-115 -200 -128 -200 -5 0 1 13 12 29 12 16 21 35 21 43 0 7 13 65 29 128 32
129 46 273 33 340 l-9 45 -17 -60 c-34 -123 -119 -313 -147 -331 -5 -3 -9 3
-9 12 0 10 -14 -4 -31 -32 -80 -127 -268 -267 -424 -317 -94 -30 -282 -31
-365 -3 -30 10 -57 22 -60 26 -3 4 -37 21 -77 37 -360 151 -509 659 -297 1016
19 32 34 64 34 70 1 22 127 146 190 186 298 193 713 120 943 -164 61 -76 124
-202 148 -297 16 -61 18 -65 13 -23 -3 27 -17 79 -31 115 -13 36 -31 83 -40
105 -20 55 -72 122 -148 193 -73 69 -164 125 -280 173 -44 18 -83 37 -86 42
-17 25 -183 34 -285 17 -82 -15 -203 -49 -236 -66 -17 -9 -28 -11 -28 -5 0 15
104 65 190 92 61 19 99 23 202 24 121 0 166 9 96 18 -18 2 -4 3 32 0 141 -9
368 -115 489 -228 62 -58 130 -150 184 -249 45 -84 43 -44 -2 46 -16 32 -25
60 -20 64 17 10 -53 94 -171 206 -94 89 -130 117 -195 148 -186 88 -406 132
-550 110z m770 -300 c21 -22 37 -40 34 -40 -3 0 -23 18 -44 40 -21 22 -37 40
-34 40 3 0 23 -18 44 -40z"/>
</g>
</svg>
